<?xml version="1.0" encoding="UTF-8"?>
<svg width="66" height="103" viewBox="0 0 66 103" fill="none" xmlns="http://www.w3.org/2000/svg" xmlns:xlink="http://www.w3.org/1999/xlink">
<g clip-path="url(#clip0_8028_19563)">
<path d="M3.01295 14.7792V3.43635C3.01295 3.29223 2.87939 3.18539 2.73842 3.21769L2.61722 3.24502C2.36495 3.30465 2.08053 3.36429 1.76147 3.42144C1.44489 3.48107 1.16294 3.53325 0.915615 3.58046L0.794425 3.60282C0.655922 3.63016 0.529785 3.52331 0.529785 3.38168V2.39275C0.529785 2.29088 0.596563 2.20143 0.695494 2.17658C0.853783 2.13434 1.03186 2.08465 1.22725 2.02253C1.49189 1.94053 1.76147 1.83866 2.03848 1.72187C2.31549 1.60509 2.57765 1.45601 2.8324 1.27959C3.05499 1.12305 3.24544 0.946634 3.40867 0.74537C3.45072 0.69319 3.51502 0.660889 3.5818 0.660889H4.67746C4.80112 0.660889 4.90253 0.762763 4.90253 0.887V14.7792C4.90253 14.9034 4.80112 15.0053 4.67746 15.0053H3.23802C3.11435 15.0053 3.01295 14.9034 3.01295 14.7792Z" fill="white"/>
<path d="M8.31821 14.7792V13.7232C8.31821 13.681 8.33058 13.6387 8.35284 13.6015L11.949 7.97351C12.2186 7.54862 12.4684 7.15355 12.6984 6.78829C12.9284 6.42304 13.1164 6.03542 13.2623 5.62792C13.4082 5.22042 13.4824 4.7508 13.4824 4.21907C13.4824 3.55813 13.376 3.03882 13.1658 2.66114C12.9556 2.28346 12.5846 2.09462 12.0553 2.09462C11.6077 2.09462 11.2614 2.21885 11.0165 2.46733C10.7717 2.7158 10.5986 3.03882 10.5046 3.44135C10.4106 3.84387 10.3636 4.27373 10.3636 4.73341V4.98685C10.3636 5.11109 10.2622 5.21297 10.1385 5.21297H8.69909C8.57543 5.21297 8.47403 5.11109 8.47403 4.98685V4.71602C8.47403 3.85381 8.5878 3.11336 8.81781 2.49466C9.04783 1.87596 9.41634 1.39392 9.92831 1.05102C10.4403 0.708129 11.118 0.536682 11.9638 0.536682C13.1164 0.536682 13.9721 0.864668 14.536 1.51816C15.0999 2.17164 15.3819 3.07857 15.3819 4.23646C15.3819 4.85019 15.3077 5.3869 15.1617 5.84658C15.0158 6.30625 14.8229 6.7386 14.5879 7.13864C14.353 7.54117 14.0933 7.95364 13.8113 8.37853L10.7593 13.0598C10.6629 13.2089 10.7692 13.4076 10.9473 13.4076H14.8204C14.9441 13.4076 15.0455 13.5095 15.0455 13.6338V14.7767C15.0455 14.901 14.9441 15.0028 14.8204 15.0028H8.53586C8.4122 15.0028 8.31079 14.901 8.31079 14.7767L8.31821 14.7792Z" fill="white"/>
<path d="M20.922 15.1445C20.0637 15.1445 19.3836 14.9805 18.8766 14.6475C18.372 14.3171 18.0109 13.84 17.7933 13.2138C17.5954 12.6448 17.4866 11.9764 17.4693 11.2136C17.4668 11.0869 17.5682 10.985 17.6943 10.985H19.1338C19.255 10.985 19.3514 11.0844 19.3564 11.2062C19.3663 11.554 19.4009 11.8969 19.4578 12.2349C19.5295 12.6424 19.6779 12.9778 19.9079 13.2437C20.1379 13.5095 20.4867 13.6412 20.9566 13.6412C21.4735 13.6412 21.8445 13.4897 22.0671 13.189C22.2897 12.8883 22.4307 12.4808 22.49 11.9665C22.5494 11.4522 22.5791 10.8707 22.5791 10.2222C22.5791 9.5737 22.5444 9.02209 22.4727 8.56738C22.401 8.11267 22.2551 7.76481 22.0325 7.52379C21.8099 7.28277 21.4562 7.16102 20.9739 7.16102C20.5856 7.16102 20.2567 7.28277 19.9871 7.52379C19.7546 7.73251 19.5765 7.96359 19.4479 8.21703C19.4083 8.29406 19.3317 8.34624 19.2451 8.34624H18.006C17.8823 8.34624 17.7809 8.24436 17.7809 8.12013V0.884559C17.7809 0.760322 17.8823 0.658447 18.006 0.658447H23.7093C23.833 0.658447 23.9344 0.760322 23.9344 0.884559V2.32819C23.9344 2.45243 23.833 2.55431 23.7093 2.55431H19.7076C19.5864 2.55431 19.4875 2.65121 19.485 2.77296L19.3836 6.01803C19.3786 6.20439 19.5839 6.31123 19.7373 6.20688C19.8906 6.10252 20.0563 6.01307 20.2393 5.93852C20.5856 5.79689 20.9813 5.72484 21.429 5.72484C22.2056 5.72484 22.8115 5.90871 23.2543 6.27396C23.6945 6.63922 24.0061 7.14114 24.1892 7.77972C24.3722 8.4183 24.4612 9.14881 24.4612 9.97623C24.4612 10.7092 24.4093 11.39 24.3029 12.0212C24.1966 12.6523 24.0111 13.2014 23.7489 13.6686C23.4843 14.1357 23.1232 14.4985 22.6656 14.7569C22.2081 15.0153 21.6268 15.147 20.9195 15.147L20.922 15.1445Z" fill="white"/>
<path d="M1.05649 19.1896H22.1658V22.0073H1.05649C0.7498 22.0073 0.5 21.7564 0.5 21.4483V19.7487C0.5 19.4406 0.7498 19.1896 1.05649 19.1896Z" fill="#006221"/>
<path d="M43.8316 19.1896H22.1658V22.0073H43.8316V19.1896Z" fill="white"/>
<path d="M43.8342 19.1896H64.9436C65.2503 19.1896 65.5001 19.4406 65.5001 19.7487V21.4483C65.5001 21.7564 65.2503 22.0073 64.9436 22.0073H43.8342V19.1896Z" fill="#CE2B37"/>
<path d="M64.9435 19.3139C65.1809 19.3139 65.3763 19.5102 65.3763 19.7487V21.4483C65.3763 21.6868 65.1809 21.8831 64.9435 21.8831H1.05649C0.819052 21.8831 0.623663 21.6868 0.623663 21.4483V19.7487C0.623663 19.5102 0.819052 19.3139 1.05649 19.3139H64.9435ZM64.9435 19.1896H1.05649C0.7498 19.1896 0.5 19.4406 0.5 19.7487V21.4483C0.5 21.7564 0.7498 22.0073 1.05649 22.0073H64.9435C65.2502 22.0073 65.5 21.7564 65.5 21.4483V19.7487C65.5 19.4406 65.2502 19.1896 64.9435 19.1896Z" fill="#B0B0B0"/>
<path d="M28.8956 14.8016L31.9773 0.223627C32.0045 0.0919354 32.1207 0 32.2543 0H33.8248C33.9584 0 34.0721 0.0944202 34.1018 0.223627L37.2008 14.8016C37.2379 14.978 37.1044 15.1445 36.9238 15.1445H35.5165C35.3805 15.1445 35.2643 15.0476 35.2395 14.9109L34.636 11.5615C34.6113 11.4273 34.4951 11.3279 34.359 11.3279H31.7572C31.6211 11.3279 31.5049 11.4248 31.4802 11.559L30.8421 14.9134C30.8173 15.0476 30.7011 15.1445 30.565 15.1445H29.1751C28.9945 15.1445 28.861 14.978 28.8981 14.8016H28.8956ZM32.1405 9.81473H33.9757C34.1513 9.81473 34.2848 9.65322 34.2527 9.47929L33.3277 4.49738C33.2708 4.18927 32.8281 4.18927 32.7737 4.49738L31.8635 9.47929C31.8314 9.65322 31.9649 9.81473 32.1405 9.81473Z" fill="white"/>
<path d="M40.3813 14.8612V0.283261C40.3813 0.126722 40.5075 0 40.6633 0H41.6279C41.7416 0 41.843 0.067088 41.8876 0.171447L45.553 8.78605C45.6741 9.06931 46.0946 8.98234 46.0946 8.67423V0.283261C46.0946 0.126722 46.2207 0 46.3766 0H47.5612C47.7171 0 47.8432 0.126722 47.8432 0.283261V14.8612C47.8432 15.0178 47.7171 15.1445 47.5612 15.1445H46.6907C46.5769 15.1445 46.4755 15.0749 46.431 14.9706L42.7087 6.09756C42.59 5.81181 42.167 5.89878 42.167 6.20688V14.8588C42.167 15.0153 42.0409 15.142 41.8851 15.142H40.6633C40.5075 15.142 40.3813 15.0153 40.3813 14.8588V14.8612Z" fill="white"/>
<path d="M51.7905 14.8612V0.283261C51.7905 0.126722 51.9167 0 52.0725 0H53.0371C53.1508 0 53.2522 0.067088 53.2967 0.171447L56.9621 8.78605C57.0833 9.06931 57.5038 8.98234 57.5038 8.67423V0.283261C57.5038 0.126722 57.6299 0 57.7857 0H58.9704C59.1262 0 59.2524 0.126722 59.2524 0.283261V14.8612C59.2524 15.0178 59.1262 15.1445 58.9704 15.1445H58.0998C57.9861 15.1445 57.8847 15.0749 57.8401 14.9706L54.1179 6.09756C53.9992 5.81181 53.5762 5.89878 53.5762 6.20688V14.8588C53.5762 15.0153 53.4501 15.142 53.2943 15.142H52.0725C51.9167 15.142 51.7905 15.0153 51.7905 14.8588V14.8612Z" fill="white"/>
<path d="M63.311 14.8612V0.283261C63.311 0.126722 63.4372 0 63.593 0H65.0943C65.2501 0 65.3762 0.126722 65.3762 0.283261V14.8612C65.3762 15.0178 65.2501 15.1445 65.0943 15.1445H63.593C63.4372 15.1445 63.311 15.0178 63.311 14.8612Z" fill="white"/>
<path d="M58.105 88.7152C58.2014 88.5786 58.2905 88.437 58.3721 88.2953C58.3894 88.2655 58.4067 88.2357 58.4216 88.2059C58.5057 88.0568 58.5823 87.9027 58.6516 87.7462C58.659 87.7313 58.6639 87.7164 58.6714 87.7015C58.7406 87.5424 58.8049 87.3785 58.8593 87.2145C58.8643 87.2045 58.8668 87.1921 58.8717 87.1822C58.9261 87.0157 58.9731 86.8442 59.0151 86.6728C59.0201 86.6479 59.0275 86.6256 59.0325 86.6007C59.0696 86.4318 59.1017 86.2628 59.1264 86.0938C59.1289 86.0715 59.1314 86.0491 59.1339 86.0268C59.1561 85.8528 59.1734 85.6764 59.1833 85.5025C59.3095 82.7096 57.7859 80.0857 52.3274 76.4779C47.9868 73.6055 42.9612 71.8463 38.2446 70.6462C32.7342 69.2448 25.1858 68.6932 19.5096 69.7293C12.4534 71.0214 6.79454 76.2046 6.79701 83.4352C6.7698 87.048 8.20677 90.2111 10.455 92.8175C17.1773 100.607 27.8396 103.721 37.6387 102.858C43.2678 102.364 46.9505 99.1164 49.1419 97.0068C50.0298 96.1521 56.156 90.6757 57.3061 89.6445L57.2962 89.6321C57.3135 89.6147 57.3284 89.5973 57.3482 89.5799C57.4694 89.4681 57.5881 89.3513 57.6994 89.2296C57.7117 89.2147 57.7241 89.2023 57.7365 89.1873C57.8453 89.0631 57.9467 88.9339 58.0432 88.8022C58.0629 88.7749 58.0852 88.7475 58.105 88.7177V88.7152ZM46.7453 91.4882C36.1424 91.2348 26.3927 86.8417 20.3283 80.8013C19.015 79.4944 16.5689 76.1101 18.2631 73.7944C19.5343 72.0625 22.6705 72.2066 24.471 72.475C35.0591 74.0553 43.7328 81.5617 46.7428 91.4683V91.4832L46.7453 91.4882Z" fill="white"/>
<path d="M46.7453 91.4882V91.4708C43.7353 81.5642 35.0615 74.0577 24.4735 72.4775C22.6729 72.2091 19.5343 72.065 18.2656 73.7969C16.5714 76.1126 19.0174 79.4969 20.3307 80.8038C26.3927 86.8417 36.1424 91.2348 46.7477 91.4907L46.7453 91.4882ZM57.2962 89.6321L57.3061 89.6445C56.156 90.6732 50.0298 96.1521 49.1419 97.0068C46.9481 99.1164 43.2654 102.366 37.6387 102.858C27.8421 103.721 17.1773 100.607 10.455 92.8175C8.20677 90.2111 6.7698 87.048 6.79701 83.4352C6.79454 76.2021 12.4559 71.0214 19.5096 69.7293C25.1882 68.6932 32.7342 69.2448 38.2446 70.6462C42.9612 71.8438 47.9868 73.6055 52.3274 76.4779C57.7859 80.0857 59.3095 82.7096 59.1833 85.5025C59.1141 87.0107 58.4859 88.5637 57.2938 89.6321H57.2962Z" fill="url(#paint0_radial_8028_19563)"/>
<path d="M18.2656 73.7969C19.5369 72.065 22.673 72.2091 24.4735 72.4775C35.0616 74.0578 43.7354 81.5642 46.7453 91.4708V91.4857C49.3151 91.5479 51.9367 91.3665 54.5683 90.9043L54.7909 90.867C55.4982 90.7279 56.119 90.4695 56.6532 90.1241C58.2633 89.0855 59.1067 87.2642 59.1859 85.505C59.312 82.7121 57.7885 80.0882 52.33 76.4804C47.9894 73.608 42.9637 71.8488 38.2472 70.6487C32.7367 69.2473 25.1883 68.6957 19.5122 69.7318" fill="url(#paint1_linear_8028_19563)"/>
<path d="M27.3523 26.2388H23.7142C23.5559 26.2388 23.4297 26.3656 23.4297 26.5246V49.7519C23.4297 50.0824 22.9672 50.1495 22.8732 49.8339L15.9827 26.4451C15.9481 26.3233 15.8368 26.2413 15.7107 26.2413H13.2671C13.2671 26.2413 13.2671 26.2413 13.2621 26.2413H9.896C9.73771 26.2413 9.61157 26.368 9.61157 26.5271V62.5707C9.61157 62.7297 9.73771 62.8565 9.896 62.8565H13.5342C13.6925 62.8565 13.8186 62.7297 13.8186 62.5707V39.3384C13.8186 39.0079 14.2811 38.9408 14.3751 39.2564L21.2681 62.6478C21.3027 62.7695 21.414 62.8515 21.5402 62.8515H23.9689C23.9689 62.8515 23.9813 62.8515 23.9862 62.8515H27.3523C27.5106 62.8515 27.6368 62.7248 27.6368 62.5658V26.5246C27.6368 26.3656 27.5106 26.2388 27.3523 26.2388Z" fill="white"/>
<path d="M5.55289 26.2388H1.05649C0.749147 26.2388 0.5 26.4891 0.5 26.7979V62.2949C0.5 62.6037 0.749147 62.854 1.05649 62.854H5.55289C5.86023 62.854 6.10938 62.6037 6.10938 62.2949V26.7979C6.10938 26.4891 5.86023 26.2388 5.55289 26.2388Z" fill="white"/>
<path fill-rule="evenodd" clip-rule="evenodd" d="M45.8449 30.4207C45.0288 27.9881 42.7385 26.2388 40.0427 26.2388H31.6978C31.3912 26.2388 31.1414 26.4898 31.1414 26.7979V62.2999C31.1414 62.608 31.3912 62.859 31.6978 62.859H36.1942C36.5009 62.859 36.7507 62.608 36.7507 62.2999V51.3645C36.7507 51.0216 37.0277 50.7434 37.3691 50.7434C38.2743 50.7434 40.0427 50.7434 40.0427 50.7434C42.7484 50.7434 45.0436 48.9817 45.8524 46.5367C46.7675 44.0271 47.2646 41.3187 47.2646 38.4911C47.2646 35.6635 46.7625 32.9377 45.8425 30.4207H45.8449ZM40.9528 46.1938C40.6437 47.1976 39.5282 47.9257 38.4276 47.9257C38.4276 47.9257 37.7969 47.9257 37.3097 47.9257C37.003 47.9257 36.7532 47.6747 36.7532 47.3666V29.6156C36.7532 29.3075 37.003 29.0565 37.3097 29.0565C37.7969 29.0565 38.4276 29.0565 38.4276 29.0565C39.459 29.0565 40.5274 29.6976 40.8885 30.6045C41.7665 33.0694 42.2439 35.7231 42.2439 38.4911C42.2439 41.2591 41.7888 43.7811 40.9528 46.1938Z" fill="white"/>
<path d="M60.7117 43.6991C58.9236 41.8256 54.7808 37.4575 53.9597 35.4871C53.1312 33.5067 53.334 31.6457 54.2343 30.4306C54.9738 29.4342 56.4676 28.8553 57.9763 29.3721C59.2748 29.8194 60.8379 31.1959 61.1718 35.1939C61.1817 35.4622 61.3944 35.738 61.7456 35.738H63.514C63.7885 35.738 64.0704 35.5293 64.0828 35.1715C64.2188 32.9253 63.5733 30.5921 62.8116 29.4293C61.4809 27.2004 59.903 26.3358 57.6004 26.0426C55.2755 25.7444 52.127 26.701 50.4947 29.3001C49.0676 31.5736 48.6768 35.2361 49.5103 38.096C50.5664 41.7213 51.5656 42.8121 53.2177 44.8073C53.4947 45.1428 55.1914 46.9914 55.7875 47.5654C58.3844 50.0526 59.7719 52.0031 60.0069 55.1662C60.1948 57.6758 58.8568 59.9071 56.5418 59.7978C55.1444 59.7332 54.4445 59.2462 53.4997 58.2299C52.5524 57.2112 52.1814 55.9241 51.9935 53.822C51.9242 53.0418 51.9737 51.7149 51.9786 51.3C51.9786 51.0242 51.7635 50.7409 51.4221 50.7409H49.2308C48.8945 50.7409 48.6719 51.0217 48.6719 51.3C48.6842 52.9026 48.7312 54.5748 48.8945 55.524C49.4237 58.5927 49.9753 59.5418 51.62 61.219C52.9877 62.367 54.5954 63.0975 56.6655 63.0975C60.7785 63.0975 63.8429 60.65 65.0004 57.0074C65.4258 55.6656 65.5643 54.2444 65.4678 52.8405C65.1661 48.4997 62.6928 45.7813 60.7093 43.6991H60.7117Z" fill="white"/>
</g>
<defs>
<radialGradient id="paint0_radial_8028_19563" cx="0" cy="0" r="1" gradientUnits="userSpaceOnUse" gradientTransform="translate(20.1627 75.5362) rotate(-163.265) scale(36.6737 28.7732)">
<stop offset="0.0810973" stop-color="#D1D3D4"/>
<stop offset="0.666674" stop-color="#D1D3D4" stop-opacity="0.02"/>
<stop offset="0.88" stop-color="#D1D3D4" stop-opacity="0"/>
</radialGradient>
<linearGradient id="paint1_linear_8028_19563" x1="32.8233" y1="72.1892" x2="55.0764" y2="94.3371" gradientUnits="userSpaceOnUse">
<stop stop-color="#D1D3D4" stop-opacity="0"/>
<stop offset="0.22" stop-color="#D1D3D4" stop-opacity="0.34"/>
<stop offset="0.5" stop-color="#D1D3D4" stop-opacity="0.7"/>
<stop offset="0.73" stop-color="#D1D3D4" stop-opacity="0.92"/>
<stop offset="0.88" stop-color="#D1D3D4"/>
</linearGradient>
<clipPath id="clip0_8028_19563">
<rect width="65" height="103" fill="white" transform="translate(0.5)"/>
</clipPath>
</defs>
</svg>
