<?xml version="1.0" encoding="UTF-8"?>
<svg width="80" height="127" viewBox="0 0 80 127" fill="none" xmlns="http://www.w3.org/2000/svg" xmlns:xlink="http://www.w3.org/1999/xlink">
<g clip-path="url(#clip0_41_30560)">
<path d="M3.09273 18.222V4.32608C3.09273 4.14952 2.92835 4.01863 2.75484 4.0582L2.60568 4.09169C2.29519 4.16474 1.94513 4.2378 1.55245 4.30781C1.16282 4.38087 0.815799 4.44479 0.511396 4.50263L0.362239 4.53003C0.191774 4.56351 0.0365286 4.43262 0.0365286 4.25911V3.04759C0.0365286 2.92278 0.118717 2.8132 0.240478 2.78276C0.435296 2.73101 0.654466 2.67013 0.894943 2.59403C1.22065 2.49358 1.55245 2.36877 1.89338 2.2257C2.23431 2.08263 2.55698 1.89999 2.87052 1.68387C3.14448 1.49209 3.37887 1.27597 3.57977 1.0294C3.63152 0.965476 3.71067 0.925903 3.79285 0.925903H5.14136C5.29356 0.925903 5.41836 1.05071 5.41836 1.20291V18.222C5.41836 18.3742 5.29356 18.4991 5.14136 18.4991H3.36974C3.21753 18.4991 3.09273 18.3742 3.09273 18.222Z" fill="#2F6DD5"/>
<path d="M9.62216 18.2221V16.9284C9.62216 16.8766 9.63738 16.8249 9.66478 16.7792L14.0908 9.88451C14.4226 9.36398 14.73 8.87998 15.0131 8.43251C15.2962 7.98503 15.5276 7.51017 15.7072 7.01095C15.8868 6.51173 15.9781 5.93641 15.9781 5.28499C15.9781 4.47528 15.8472 3.83907 15.5884 3.37638C15.3297 2.91369 14.8731 2.68235 14.2217 2.68235C13.6707 2.68235 13.2445 2.83455 12.9432 3.13895C12.6418 3.44335 12.4288 3.83907 12.3131 4.33221C12.1974 4.82534 12.1396 5.35195 12.1396 5.9151V6.22559C12.1396 6.37779 12.0148 6.5026 11.8626 6.5026H10.0909C9.93874 6.5026 9.81393 6.37779 9.81393 6.22559V5.89379C9.81393 4.83751 9.95396 3.9304 10.2371 3.17243C10.5201 2.41447 10.9737 1.82393 11.6038 1.40386C12.2339 0.98378 13.068 0.773743 14.1091 0.773743C15.5276 0.773743 16.5808 1.17555 17.2748 1.97613C17.9689 2.77671 18.3159 3.88778 18.3159 5.30629C18.3159 6.05817 18.2246 6.71568 18.045 7.27882C17.8654 7.84197 17.6279 8.37163 17.3388 8.86171C17.0496 9.35485 16.73 9.86015 16.3829 10.3807L12.6266 16.1156C12.5079 16.2983 12.6388 16.5418 12.858 16.5418H17.6249C17.7771 16.5418 17.9019 16.6666 17.9019 16.8188V18.219C17.9019 18.3712 17.7771 18.496 17.6249 18.496H9.89003C9.73783 18.496 9.61303 18.3712 9.61303 18.219L9.62216 18.2221Z" fill="#2F6DD5"/>
<path d="M25.1345 18.6695C24.0782 18.6695 23.2411 18.4686 22.6171 18.0607C21.9961 17.6559 21.5517 17.0714 21.2838 16.3043C21.0403 15.6072 20.9064 14.7884 20.885 13.8539C20.882 13.6986 21.0068 13.5738 21.1621 13.5738H22.9337C23.0828 13.5738 23.2016 13.6956 23.2076 13.8447C23.2198 14.2709 23.2624 14.691 23.3324 15.105C23.4207 15.6042 23.6034 16.0151 23.8865 16.3408C24.1696 16.6665 24.5988 16.8279 25.1771 16.8279C25.8133 16.8279 26.2699 16.6422 26.5439 16.2739C26.8179 15.9055 26.9914 15.4063 27.0644 14.7762C27.1375 14.1461 27.174 13.4338 27.174 12.6393C27.174 11.8448 27.1314 11.169 27.0431 10.612C26.9548 10.0549 26.7752 9.62876 26.5013 9.33349C26.2273 9.03822 25.792 8.88906 25.1984 8.88906C24.7205 8.88906 24.3157 9.03822 23.9839 9.33349C23.6977 9.58919 23.4786 9.87228 23.3203 10.1828C23.2716 10.2771 23.1772 10.3411 23.0707 10.3411H21.5456C21.3934 10.3411 21.2686 10.2163 21.2686 10.0641V1.19986C21.2686 1.04766 21.3934 0.922852 21.5456 0.922852H28.5651C28.7173 0.922852 28.8421 1.04766 28.8421 1.19986V2.96844C28.8421 3.12064 28.7173 3.24544 28.5651 3.24544H23.6399C23.4907 3.24544 23.369 3.36416 23.3659 3.51332L23.2411 7.48881C23.235 7.71711 23.4877 7.84801 23.6764 7.72016C23.8651 7.59231 24.0691 7.48272 24.2944 7.3914C24.7205 7.21789 25.2076 7.12962 25.7585 7.12962C26.7144 7.12962 27.4601 7.35487 28.005 7.80235C28.5469 8.24982 28.9304 8.86471 29.1557 9.64702C29.3809 10.4293 29.4905 11.3243 29.4905 12.3379C29.4905 13.2359 29.4266 14.07 29.2957 14.8432C29.1648 15.6164 28.9365 16.2891 28.6138 16.8614C28.2881 17.4336 27.8437 17.8781 27.2805 18.1946C26.7174 18.5112 26.0021 18.6726 25.1315 18.6726L25.1345 18.6695Z" fill="#2F6DD5"/>
<path d="M0.684905 23.6252H26.6657V27.0771H0.684905C0.307446 27.0771 0 26.7697 0 26.3922V24.3101C0 23.9326 0.307446 23.6252 0.684905 23.6252Z" fill="#006221"/>
<path d="M53.3313 23.6252H26.6657V27.0771H53.3313V23.6252Z" fill="white"/>
<path d="M53.3344 23.6252H79.3151C79.6926 23.6252 80 23.9326 80 24.3101V26.3922C80 26.7697 79.6926 27.0771 79.3151 27.0771H53.3344V23.6252Z" fill="#CE2B37"/>
<path d="M79.3151 23.7774C79.6073 23.7774 79.8478 24.0179 79.8478 24.3101V26.3922C79.8478 26.6844 79.6073 26.9249 79.3151 26.9249H0.684905C0.392679 26.9249 0.152201 26.6844 0.152201 26.3922V24.3101C0.152201 24.0179 0.392679 23.7774 0.684905 23.7774H79.3151ZM79.3151 23.6252H0.684905C0.307446 23.6252 0 23.9326 0 24.3101V26.3922C0 26.7697 0.307446 27.0771 0.684905 27.0771H79.3151C79.6926 27.0771 80 26.7697 80 26.3922V24.3101C80 23.9326 79.6926 23.6252 79.3151 23.6252Z" fill="#B0B0B0"/>
<path d="M34.9484 18.2495L38.7413 0.390173C38.7748 0.22884 38.9178 0.116211 39.0822 0.116211H41.0152C41.1796 0.116211 41.3196 0.231884 41.3561 0.390173L45.1703 18.2495C45.2159 18.4656 45.0516 18.6695 44.8293 18.6695H43.0973C42.9299 18.6695 42.7868 18.5508 42.7564 18.3834L42.0136 14.2801C41.9832 14.1157 41.8401 13.9939 41.6727 13.9939H38.4704C38.303 13.9939 38.1599 14.1126 38.1294 14.277L37.3441 18.3864C37.3136 18.5508 37.1706 18.6695 37.0032 18.6695H35.2924C35.0702 18.6695 34.9058 18.4656 34.9515 18.2495H34.9484ZM38.9422 12.1401H41.2009C41.417 12.1401 41.5814 11.9422 41.5418 11.7292L40.4033 5.62589C40.3333 5.24844 39.7884 5.24844 39.7215 5.62589L38.6013 11.7292C38.5617 11.9422 38.7261 12.1401 38.9422 12.1401Z" fill="#2F6DD5"/>
<path d="M49.0849 18.3225V0.46323C49.0849 0.271456 49.2401 0.116211 49.4319 0.116211H50.6191C50.7591 0.116211 50.8839 0.1984 50.9387 0.326249L55.4499 10.8799C55.5991 11.2269 56.1166 11.1204 56.1166 10.7429V0.46323C56.1166 0.271456 56.2718 0.116211 56.4636 0.116211H57.9217C58.1135 0.116211 58.2687 0.271456 58.2687 0.46323V18.3225C58.2687 18.5143 58.1135 18.6695 57.9217 18.6695H56.8502C56.7102 18.6695 56.5854 18.5843 56.5306 18.4565L51.9493 7.58625C51.8032 7.23618 51.2827 7.34272 51.2827 7.72018V18.3195C51.2827 18.5112 51.1274 18.6665 50.9357 18.6665H49.4319C49.2401 18.6665 49.0849 18.5112 49.0849 18.3195V18.3225Z" fill="#2F6DD5"/>
<path d="M63.127 18.3225V0.46323C63.127 0.271456 63.2822 0.116211 63.474 0.116211H64.6612C64.8012 0.116211 64.926 0.1984 64.9808 0.326249L69.492 10.8799C69.6412 11.2269 70.1587 11.1204 70.1587 10.7429V0.46323C70.1587 0.271456 70.3139 0.116211 70.5057 0.116211H71.9638C72.1556 0.116211 72.3108 0.271456 72.3108 0.46323V18.3225C72.3108 18.5143 72.1556 18.6695 71.9638 18.6695H70.8923C70.7523 18.6695 70.6275 18.5843 70.5727 18.4565L65.9914 7.58625C65.8453 7.23618 65.3248 7.34272 65.3248 7.72018V18.3195C65.3248 18.5112 65.1695 18.6665 64.9777 18.6665H63.474C63.2822 18.6665 63.127 18.5112 63.127 18.3195V18.3225Z" fill="#2F6DD5"/>
<path d="M77.306 18.3225V0.46323C77.306 0.271456 77.4613 0.116211 77.6531 0.116211H79.5008C79.6926 0.116211 79.8478 0.271456 79.8478 0.46323V18.3225C79.8478 18.5143 79.6926 18.6695 79.5008 18.6695H77.6531C77.4613 18.6695 77.306 18.5143 77.306 18.3225Z" fill="#2F6DD5"/>
<path d="M70.8984 108.8C71.0171 108.633 71.1267 108.459 71.2271 108.286C71.2484 108.249 71.2697 108.213 71.288 108.176C71.3915 107.993 71.4859 107.805 71.5711 107.613C71.5802 107.595 71.5863 107.576 71.5954 107.558C71.6807 107.363 71.7598 107.162 71.8268 106.961C71.8329 106.949 71.8359 106.934 71.842 106.922C71.909 106.718 71.9668 106.508 72.0186 106.298C72.0247 106.267 72.0338 106.24 72.0399 106.21C72.0855 106.003 72.1251 105.796 72.1555 105.589C72.1586 105.561 72.1616 105.534 72.1647 105.506C72.1921 105.293 72.2134 105.077 72.2256 104.864C72.3808 101.443 70.5057 98.2281 63.7875 93.8082C58.4453 90.2893 52.2598 88.1341 46.4549 86.6639C39.6728 84.9471 30.3824 84.2713 23.3964 85.5406C14.7118 87.1235 7.74704 93.4734 7.75009 102.331C7.7166 106.757 9.48518 110.633 12.2522 113.826C20.5259 123.369 33.6486 127.183 45.7091 126.127C52.6373 125.521 57.1698 121.542 59.8668 118.958C60.9596 117.911 68.4997 111.202 69.9151 109.938L69.903 109.923C69.9243 109.902 69.9425 109.881 69.9669 109.859C70.1161 109.722 70.2622 109.579 70.3991 109.43C70.4144 109.412 70.4296 109.397 70.4448 109.378C70.5787 109.226 70.7035 109.068 70.8223 108.907C70.8466 108.873 70.874 108.84 70.8984 108.803V108.8ZM56.9172 112.197C43.8674 111.887 31.8679 106.505 24.4039 99.1048C22.7876 97.5037 19.777 93.3577 21.8622 90.5207C23.4268 88.399 27.2866 88.5755 29.5027 88.9043C42.5341 90.8403 53.2095 100.036 56.9141 112.173V112.191L56.9172 112.197Z" fill="#2F6DD5"/>
<path d="M56.9172 112.197V112.176C53.2126 100.039 42.5372 90.8433 29.5057 88.9073C27.2897 88.5786 23.4268 88.402 21.8652 90.5237C19.7801 93.3607 22.7906 97.5067 24.407 99.1079C31.8679 106.505 43.8674 111.887 56.9202 112.2L56.9172 112.197ZM69.903 109.923L69.9151 109.938C68.4997 111.199 60.9596 117.911 59.8668 118.958C57.1668 121.542 52.6342 125.524 45.7091 126.127C33.6517 127.183 20.5259 123.369 12.2522 113.826C9.48518 110.633 7.7166 106.757 7.75009 102.331C7.74704 93.4703 14.7148 87.1235 23.3964 85.5406C30.3854 84.2713 39.6728 84.9471 46.4549 86.6639C52.2598 88.1311 58.4453 90.2893 63.7875 93.8082C70.5057 98.2281 72.3808 101.443 72.2256 104.864C72.1403 106.712 71.3671 108.614 69.8999 109.923H69.903Z" fill="url(#paint0_radial_41_30560)"/>
<path d="M21.8652 90.5237C23.4299 88.402 27.2897 88.5786 29.5057 88.9073C42.5372 90.8433 53.2126 100.039 56.9172 112.176V112.194C60.0799 112.27 63.3066 112.048 66.5454 111.482L66.8194 111.436C67.69 111.266 68.454 110.949 69.1115 110.526C71.0932 109.254 72.1312 107.022 72.2286 104.867C72.3839 101.446 70.5087 98.2312 63.7906 93.8113C58.4483 90.2924 52.2629 88.1372 46.4579 86.6669C39.6758 84.9501 30.3855 84.2743 23.3994 85.5437" fill="url(#paint1_linear_41_30560)"/>
<path d="M33.049 32.2611H28.5712C28.3764 32.2611 28.2212 32.4164 28.2212 32.6112V61.0667C28.2212 61.4716 27.6519 61.5537 27.5362 61.1672L19.0556 32.5138C19.013 32.3646 18.876 32.2642 18.7207 32.2642H15.7133C15.7133 32.2642 15.7133 32.2642 15.7072 32.2642H11.5642C11.3694 32.2642 11.2142 32.4194 11.2142 32.6142V76.7708C11.2142 76.9656 11.3694 77.1209 11.5642 77.1209H16.042C16.2368 77.1209 16.3921 76.9656 16.3921 76.7708V48.3092C16.3921 47.9043 16.9613 47.8222 17.077 48.2088L25.5607 76.8652C25.6033 77.0143 25.7403 77.1148 25.8955 77.1148H28.8847C28.8847 77.1148 28.9 77.1148 28.9061 77.1148H33.049C33.2438 77.1148 33.399 76.9596 33.399 76.7647V32.6112C33.399 32.4164 33.2438 32.2611 33.049 32.2611Z" fill="#2F6DD5"/>
<path d="M6.21894 32.2611H0.684905C0.306643 32.2611 0 32.5678 0 32.946V76.4329C0 76.8112 0.306643 77.1178 0.684905 77.1178H6.21894C6.5972 77.1178 6.90385 76.8112 6.90385 76.4329V32.946C6.90385 32.5678 6.5972 32.2611 6.21894 32.2611Z" fill="#2F6DD5"/>
<path fill-rule="evenodd" clip-rule="evenodd" d="M55.8091 37.3842C54.8046 34.4041 51.9858 32.2611 48.6679 32.2611H38.3973C38.0199 32.2611 37.7124 32.5686 37.7124 32.946V76.439C37.7124 76.8165 38.0199 77.1239 38.3973 77.1239H43.9314C44.3088 77.1239 44.6163 76.8165 44.6163 76.439V63.0423C44.6163 62.6222 44.9572 62.2813 45.3773 62.2813C46.4914 62.2813 48.6679 62.2813 48.6679 62.2813C51.998 62.2813 54.8229 60.1231 55.8183 57.1277C56.9446 54.0533 57.5564 50.7353 57.5564 47.2712C57.5564 43.8071 56.9385 40.4678 55.8061 37.3842H55.8091ZM49.7881 56.7077C49.4076 57.9375 48.0347 58.8294 46.6801 58.8294C46.6801 58.8294 45.9039 58.8294 45.3042 58.8294C44.9268 58.8294 44.6193 58.5219 44.6193 58.1444V36.3979C44.6193 36.0205 44.9268 35.713 45.3042 35.713C45.9039 35.713 46.6801 35.713 46.6801 35.713C47.9495 35.713 49.2645 36.4984 49.7089 37.6095C50.7895 40.6291 51.377 43.8801 51.377 47.2712C51.377 50.6622 50.8169 53.7519 49.7881 56.7077Z" fill="#2F6DD5"/>
<path d="M74.1068 53.6515C71.9059 51.3563 66.8072 46.0049 65.7966 43.591C64.7768 41.1649 65.0264 38.8849 66.1345 37.3964C67.0446 36.1757 68.8832 35.4665 70.7401 36.0996C72.3382 36.6475 74.262 38.3339 74.673 43.2318C74.6851 43.5605 74.9469 43.8984 75.3792 43.8984H77.5556C77.8935 43.8984 78.2405 43.6427 78.2558 43.2044C78.4232 40.4526 77.6287 37.5942 76.6911 36.1696C75.0535 33.4391 73.1114 32.3798 70.2774 32.0206C67.416 31.6553 63.541 32.8273 61.5319 36.0113C59.7755 38.7966 59.2945 43.2835 60.3204 46.7872C61.6202 51.2284 62.85 52.5647 64.8834 55.0091C65.2243 55.42 67.3125 57.6848 68.0461 58.388C71.2423 61.435 72.95 63.8246 73.2392 67.6996C73.4706 70.7741 71.8237 73.5076 68.9745 73.3737C67.2547 73.2945 66.3932 72.6979 65.2304 71.4529C64.0645 70.2049 63.6079 68.6281 63.3766 66.0528C63.2913 65.097 63.3522 63.4715 63.3583 62.9631C63.3583 62.6252 63.0935 62.2782 62.6734 62.2782H59.9764C59.5624 62.2782 59.2885 62.6222 59.2885 62.9631C59.3037 64.9265 59.3615 66.9752 59.5624 68.138C60.2138 71.8973 60.8927 73.0602 62.9169 75.1149C64.6003 76.5212 66.5789 77.4162 69.1267 77.4162C74.189 77.4162 77.9605 74.4178 79.3851 69.9552C79.9087 68.3115 80.0791 66.5703 79.9604 64.8504C79.5891 59.5325 76.545 56.2023 74.1037 53.6515H74.1068Z" fill="#2F6DD5"/>
</g>
<defs>
<radialGradient id="paint0_radial_41_30560" cx="0" cy="0" r="1" gradientUnits="userSpaceOnUse" gradientTransform="translate(24.2001 92.6545) rotate(-163.338) scale(45.1196 35.2631)">
<stop offset="0.0810973" stop-color="#002460"/>
<stop offset="0.666674" stop-color="#2E6BD2" stop-opacity="0.02"/>
<stop offset="0.88" stop-color="#2F6DD5" stop-opacity="0"/>
</radialGradient>
<linearGradient id="paint1_linear_41_30560" x1="39.7824" y1="88.5542" x2="67.0446" y2="115.813" gradientUnits="userSpaceOnUse">
<stop stop-color="#376CD4" stop-opacity="0"/>
<stop offset="0.22" stop-color="#2453AC" stop-opacity="0.34"/>
<stop offset="0.5" stop-color="#103982" stop-opacity="0.7"/>
<stop offset="0.73" stop-color="#042969" stop-opacity="0.92"/>
<stop offset="0.88" stop-color="#002460"/>
</linearGradient>
<clipPath id="clip0_41_30560">
<rect width="80" height="126.184" fill="white" transform="translate(0 0.116211)"/>
</clipPath>
</defs>
</svg>
