<svg width="114" height="41" viewBox="0 0 114 41" fill="none" xmlns="http://www.w3.org/2000/svg">
<path d="M76.4263 0L76.4263 40.3215" stroke="#2F6DD5" stroke-width="0.610931"/>
<path d="M86.4101 18.2404V3.93772C86.4101 3.7651 86.2375 3.61714 86.0649 3.66646L85.9169 3.69112C85.5963 3.7651 85.2264 3.83908 84.8319 3.91306C84.4373 3.98704 84.0674 4.06101 83.7715 4.11033L83.6236 4.13499C83.4509 4.15965 83.2783 4.03635 83.2783 3.86374V2.60609C83.2783 2.48279 83.3523 2.35949 83.4756 2.33483C83.6729 2.28551 83.8948 2.21153 84.1414 2.13755C84.4866 2.03892 84.8072 1.91562 85.1771 1.76766C85.5224 1.6197 85.8676 1.42242 86.1882 1.20049C86.4594 1.00321 86.706 0.78127 86.928 0.534673C86.9773 0.460693 87.0513 0.436035 87.1499 0.436035H88.5308C88.6788 0.436035 88.8021 0.559333 88.8021 0.707292V18.2157C88.8021 18.3637 88.6788 18.487 88.5308 18.487H86.706C86.5581 18.5363 86.4101 18.3883 86.4101 18.2404Z" fill="#2F6DD5"/>
<path d="M93.1422 18.2405V16.9089C93.1422 16.8595 93.1669 16.8102 93.1915 16.7609L97.7536 9.6589C98.0988 9.11639 98.4194 8.6232 98.6906 8.15466C98.9866 7.68613 99.2085 7.21759 99.4058 6.69974C99.6031 6.18188 99.677 5.59005 99.677 4.92424C99.677 4.08581 99.5537 3.44465 99.2825 2.95146C99.0112 2.48293 98.5427 2.23633 97.8769 2.23633C97.3097 2.23633 96.8658 2.38429 96.5699 2.70486C96.274 3.02544 96.0521 3.41999 95.9288 3.93785C95.8055 4.4557 95.7561 4.99822 95.7561 5.56539V5.88597C95.7561 6.03392 95.6328 6.15722 95.4849 6.15722H93.6601C93.5121 6.15722 93.3641 6.03392 93.3641 5.88597V5.54073C93.3641 4.4557 93.5121 3.51863 93.808 2.72952C94.1039 1.94041 94.5725 1.34858 95.2136 0.904702C95.8548 0.460827 96.7179 0.26355 97.8029 0.26355C99.2578 0.26355 100.343 0.682765 101.058 1.49654C101.773 2.31031 102.118 3.46931 102.118 4.92424C102.118 5.68869 102.02 6.37916 101.847 6.94633C101.65 7.53817 101.428 8.08068 101.132 8.57388C100.836 9.09173 100.515 9.60959 100.146 10.1274L96.274 16.0211C96.1507 16.2184 96.274 16.465 96.5206 16.465H101.428C101.576 16.465 101.699 16.5883 101.699 16.7609V18.1912C101.699 18.3391 101.576 18.4624 101.428 18.4624H93.4628C93.2655 18.5364 93.1422 18.3884 93.1422 18.2405Z" fill="#2F6DD5"/>
<path d="M109.097 18.7091C108.012 18.7091 107.149 18.5118 106.508 18.0926C105.867 17.6734 105.398 17.0815 105.127 16.2924C104.881 15.5773 104.733 14.7389 104.708 13.7771C104.708 13.6292 104.831 13.4812 105.004 13.4812H106.829C106.977 13.4812 107.1 13.6045 107.1 13.7525C107.125 14.1963 107.149 14.6156 107.223 15.0594C107.322 15.5773 107.494 15.9965 107.79 16.3417C108.086 16.687 108.53 16.8349 109.122 16.8349C109.788 16.8349 110.256 16.6377 110.528 16.2678C110.799 15.8979 110.996 15.38 111.07 14.7389C111.144 14.0977 111.193 13.3579 111.193 12.5441C111.193 11.7304 111.144 11.0399 111.07 10.4481C110.972 9.88089 110.799 9.43702 110.503 9.1411C110.232 8.84518 109.763 8.67256 109.171 8.67256C108.678 8.67256 108.259 8.82052 107.914 9.1411C107.618 9.41236 107.396 9.68361 107.223 10.0042C107.174 10.1028 107.075 10.1768 106.977 10.1768H105.398C105.25 10.1768 105.103 10.0535 105.103 9.90555V0.781451C105.103 0.633492 105.226 0.485535 105.398 0.485535H112.624C112.772 0.485535 112.895 0.608833 112.895 0.781451V2.60627C112.895 2.75423 112.772 2.90219 112.624 2.90219H107.544C107.396 2.90219 107.273 3.02549 107.273 3.17345L107.149 7.26696C107.149 7.51356 107.396 7.63686 107.593 7.51356C107.79 7.39026 107.988 7.26696 108.234 7.16832C108.678 6.9957 109.171 6.89706 109.739 6.89706C110.725 6.89706 111.489 7.119 112.057 7.58754C112.624 8.05607 113.018 8.67256 113.24 9.48633C113.462 10.3001 113.585 11.2125 113.585 12.2482C113.585 13.1606 113.511 14.0237 113.388 14.8375C113.265 15.6266 113.018 16.3171 112.673 16.9089C112.328 17.5007 111.884 17.9446 111.292 18.2899C110.7 18.6351 110.01 18.7091 109.097 18.7091Z" fill="#2F6DD5"/>
<path d="M64.2847 19.0632C62.3866 17.086 57.9578 12.4463 57.0878 10.3373C56.2179 8.22837 56.4288 6.25121 57.3778 4.98583C58.1687 3.93135 59.7504 3.32502 61.3585 3.85226C62.7557 4.32678 64.4165 5.7767 64.7592 10.021C64.7592 10.311 64.9965 10.601 65.3655 10.601H67.2636C67.5536 10.601 67.8436 10.3901 67.8699 9.99463C68.0018 7.62204 67.3163 5.14401 66.5255 3.90499C65.1019 1.5324 63.4147 0.636085 60.9631 0.31974C58.485 0.00339505 55.137 1.00516 53.3971 3.77318C51.8681 6.17213 51.4727 10.0737 52.3427 13.1054C53.4762 16.9542 54.5307 18.1142 56.297 20.2231C56.587 20.5658 58.4059 22.543 59.0386 23.1493C61.8067 25.7855 63.2829 27.8681 63.5466 31.2161C63.7574 33.8787 62.3075 36.2513 59.8559 36.1195C58.3532 36.0404 57.6151 35.5395 56.6133 34.4587C55.6116 33.3778 55.2161 32.007 55.0052 29.7926C54.9261 28.9753 54.9789 27.5518 54.9789 27.13C54.9789 26.84 54.7416 26.55 54.3989 26.55H52.0527C51.6836 26.55 51.4464 26.84 51.4464 27.13C51.4464 28.8435 51.4991 30.6098 51.6836 31.6116C52.2372 34.8541 52.8435 35.8822 54.5834 37.6485C56.0334 38.8611 57.7469 39.652 59.9613 39.652C64.3374 39.652 67.6063 37.0421 68.8453 33.1933C69.2935 31.7697 69.4517 30.2671 69.3462 28.7644C69.0299 24.1511 66.3937 21.2776 64.2847 19.0632Z" fill="#2F6DD5"/>
<path fill-rule="evenodd" clip-rule="evenodd" d="M48.4404 4.98596C47.5704 2.40248 45.1188 0.557129 42.2453 0.557129H38.7391H33.3613C33.0449 0.557129 32.7813 0.820753 32.7813 1.1371V38.8085C32.7813 39.1249 33.0449 39.3885 33.3613 39.3885H38.1592C38.4755 39.3885 38.7391 39.1249 38.7391 38.8085V27.2092C38.7391 26.8401 39.0291 26.5502 39.3982 26.5502C40.3736 26.5502 42.2453 26.5502 42.2453 26.5502C45.1188 26.5502 47.5704 24.6785 48.4404 22.095C49.4158 19.4324 49.943 16.5589 49.943 13.5536C49.9694 10.522 49.4158 7.64853 48.4404 4.98596ZM43.2207 21.7259C42.878 22.7804 41.6917 23.5712 40.5318 23.5712C40.5318 23.5712 39.8464 23.5712 39.3455 23.5712C39.0291 23.5712 38.7655 23.3076 38.7655 22.9913V4.16874C38.7655 3.85239 39.0291 3.58877 39.3455 3.58877C39.8727 3.58877 40.5318 3.58877 40.5318 3.58877C41.639 3.58877 42.7725 4.27419 43.168 5.22322C44.0906 7.83307 44.6179 10.6538 44.6179 13.58C44.5915 16.4008 44.117 19.1688 43.2207 21.7259Z" fill="#2F6DD5"/>
<path d="M28.7225 0.557129H24.8473C24.6891 0.557129 24.5573 0.688941 24.5573 0.847114V25.4957C24.5573 25.8384 24.0564 25.9175 23.9509 25.5748L16.5959 0.768026C16.5696 0.636216 16.4377 0.557129 16.3059 0.557129H13.6961H12.378H10.7963H10.1108C9.95267 0.557129 9.82086 0.688941 9.82086 0.847114V39.0985C9.82086 39.2567 9.95267 39.3885 10.1108 39.3885H13.9861C14.1442 39.3885 14.2761 39.2567 14.2761 39.0985V14.45C14.2761 14.1073 14.7769 14.0282 14.8824 14.3709L22.2374 39.1776C22.2638 39.3094 22.3956 39.3885 22.5274 39.3885H25.1109C25.1109 39.3885 25.1109 39.3885 25.1372 39.3885H28.7225C28.8807 39.3885 29.0125 39.2567 29.0125 39.0985V0.847114C29.0388 0.688941 28.907 0.557129 28.7225 0.557129Z" fill="#2F6DD5"/>
<path d="M5.49732 39.3885H0.699411C0.383066 39.3885 0.119446 39.1249 0.119446 38.8085V1.1371C0.119446 0.820753 0.383066 0.557129 0.699411 0.557129H5.49732C5.81366 0.557129 6.07728 0.820753 6.07728 1.1371V38.8085C6.07728 39.1249 5.81366 39.3885 5.49732 39.3885Z" fill="#2F6DD5"/>
<path d="M83.5449 33.1992L86.0792 21.2662C86.1016 21.1584 86.1972 21.0831 86.307 21.0831H87.5986C87.7084 21.0831 87.8019 21.1604 87.8263 21.2662L90.3749 33.1992C90.4054 33.3436 90.2955 33.4799 90.1471 33.4799H88.9898C88.8779 33.4799 88.7823 33.4005 88.762 33.2887L88.2657 30.547C88.2453 30.4371 88.1497 30.3558 88.0379 30.3558H85.8982C85.7863 30.3558 85.6907 30.4351 85.6704 30.5449L85.1456 33.2907C85.1253 33.4005 85.0297 33.4799 84.9178 33.4799H83.7748C83.6263 33.4799 83.5165 33.3436 83.547 33.1992H83.5449ZM86.2135 29.1171H87.7226C87.867 29.1171 87.9769 28.9849 87.9504 28.8425L87.1897 24.7645C87.143 24.5123 86.7789 24.5123 86.7341 24.7645L85.9857 28.8425C85.9592 28.9849 86.069 29.1171 86.2135 29.1171Z" fill="#2F6DD5"/>
<path d="M92.9911 33.248V21.315C92.9911 21.1869 93.0949 21.0831 93.223 21.0831H94.0162C94.1098 21.0831 94.1932 21.138 94.2298 21.2235L97.2441 28.2751C97.3437 28.5069 97.6895 28.4357 97.6895 28.1835V21.315C97.6895 21.1869 97.7932 21.0831 97.9214 21.0831H98.8956C99.0238 21.0831 99.1275 21.1869 99.1275 21.315V33.248C99.1275 33.3761 99.0238 33.4799 98.8956 33.4799H98.1797C98.0861 33.4799 98.0027 33.4229 97.9661 33.3375L94.9051 26.0744C94.8074 25.8405 94.4596 25.9117 94.4596 26.1639V33.246C94.4596 33.3741 94.3559 33.4778 94.2278 33.4778H93.223C93.0949 33.4778 92.9911 33.3741 92.9911 33.246V33.248Z" fill="#2F6DD5"/>
<path d="M102.371 33.248V21.315C102.371 21.1869 102.475 21.0831 102.603 21.0831H103.397C103.49 21.0831 103.574 21.138 103.61 21.2235L106.624 28.2751C106.724 28.5069 107.07 28.4357 107.07 28.1835V21.315C107.07 21.1869 107.174 21.0831 107.302 21.0831H108.276C108.404 21.0831 108.508 21.1869 108.508 21.315V33.248C108.508 33.3761 108.404 33.4799 108.276 33.4799H107.56C107.466 33.4799 107.383 33.4229 107.346 33.3375L104.285 26.0744C104.188 25.8405 103.84 25.9117 103.84 26.1639V33.246C103.84 33.3741 103.736 33.4778 103.608 33.4778H102.603C102.475 33.4778 102.371 33.3741 102.371 33.246V33.248Z" fill="#2F6DD5"/>
<path d="M111.845 33.248V21.315C111.845 21.1869 111.949 21.0831 112.077 21.0831H113.311C113.439 21.0831 113.543 21.1869 113.543 21.315V33.248C113.543 33.3761 113.439 33.4799 113.311 33.4799H112.077C111.949 33.4799 111.845 33.3761 111.845 33.248Z" fill="#2F6DD5"/>
<path d="M83.7936 36.8956H93.5565V39.9297H83.7936C83.6564 39.9297 83.5421 39.6612 83.5421 39.339V37.5131C83.5421 37.1641 83.6564 36.8956 83.7936 36.8956Z" fill="#006221"/>
<path d="M103.571 36.8954H93.5562V39.9296H103.571V36.8954Z" fill="white"/>
<path d="M103.571 36.8954H113.334C113.471 36.8954 113.586 37.164 113.586 37.4862V39.312C113.586 39.6342 113.471 39.9027 113.334 39.9027H103.571V36.8954Z" fill="#CE2B37"/>
<path d="M113.323 37.0298C113.437 37.0298 113.528 37.2446 113.528 37.5131V39.339C113.528 39.6075 113.437 39.8223 113.323 39.8223H83.7936C83.6792 39.8223 83.5878 39.6075 83.5878 39.339V37.5131C83.5878 37.2446 83.6792 37.0298 83.7936 37.0298H113.323ZM113.323 36.8956H83.7936C83.6564 36.8956 83.5421 37.1641 83.5421 37.4863V39.3121C83.5421 39.6343 83.6564 39.9029 83.7936 39.9029H113.323C113.46 39.9029 113.574 39.6343 113.574 39.3121V37.4863C113.586 37.1641 113.471 36.8956 113.323 36.8956Z" fill="#B0B0B0"/>
</svg>
