<svg width="60" height="39" viewBox="0 0 60 39" fill="none" xmlns="http://www.w3.org/2000/svg">
<path d="M58.5661 22.4349C58.6759 22.2784 58.7773 22.1161 58.8703 21.9538C58.89 21.9197 58.9097 21.8855 58.9266 21.8513C59.0224 21.6805 59.1097 21.5041 59.1886 21.3247C59.1971 21.3076 59.2027 21.2905 59.2111 21.2735C59.29 21.0913 59.3633 20.9034 59.4252 20.7155C59.4309 20.7041 59.4337 20.6899 59.4393 20.6785C59.5013 20.4878 59.5548 20.2914 59.6027 20.0949C59.6083 20.0665 59.6168 20.0408 59.6224 20.0124C59.6647 19.8188 59.7013 19.6252 59.7295 19.4316C59.7323 19.406 59.7351 19.3804 59.7379 19.3548C59.7633 19.1555 59.783 18.9534 59.7942 18.7541C59.9379 15.5544 58.2027 12.5483 51.9858 8.41486C47.0421 5.12405 41.3182 3.10858 35.9464 1.73362C29.6703 0.128069 21.0731 -0.503902 14.6083 0.683178C6.5717 2.16347 0.126632 8.10172 0.129449 16.3857C0.0984634 20.5248 1.73508 24.1486 4.29565 27.1349C11.952 36.0593 24.0956 39.6262 35.2562 38.6384C41.6675 38.0719 45.8618 34.3513 48.3576 31.9344C49.3689 30.9551 56.3464 24.681 57.6562 23.4996L57.6449 23.4854C57.6647 23.4654 57.6816 23.4455 57.7041 23.4256C57.8421 23.2975 57.9773 23.1637 58.1041 23.0242C58.1182 23.0071 58.1323 22.9929 58.1464 22.9758C58.2703 22.8335 58.3858 22.6854 58.4956 22.5346C58.5182 22.5033 58.5435 22.4719 58.5661 22.4378V22.4349ZM45.628 25.6119C33.552 25.3215 22.4478 20.2885 15.5407 13.3681C14.0449 11.8708 11.259 7.99354 13.1886 5.3404C14.6365 3.35624 18.2083 3.52135 20.259 3.82879C32.3182 5.63931 42.1971 14.2392 45.6252 25.5891V25.6062L45.628 25.6119Z" fill="#2F6DD5"/>
<path d="M45.628 25.6119V25.5919C42.1999 14.2421 32.321 5.64216 20.2618 3.83164C18.2111 3.5242 14.6365 3.35909 13.1914 5.34325C11.2618 7.99639 14.0478 11.8736 15.5435 13.371C22.4478 20.2885 33.552 25.3215 45.6309 25.6147L45.628 25.6119ZM57.6449 23.4854L57.6562 23.4996C56.3464 24.6781 49.3689 30.9551 48.3576 31.9344C45.859 34.3513 41.6647 38.0748 35.2562 38.6384C24.0985 39.6262 11.952 36.0593 4.29565 27.1349C1.73508 24.1486 0.0984634 20.5248 0.129449 16.3857C0.126632 8.09887 6.57452 2.16347 14.6083 0.683178C21.0759 -0.503902 29.6703 0.128069 35.9464 1.73362C41.3182 3.10573 47.0421 5.12405 51.9858 8.41486C58.2027 12.5483 59.9379 15.5544 59.7942 18.7541C59.7154 20.4821 58.9999 22.2613 57.6421 23.4854H57.6449Z" fill="url(#paint0_radial_11139_21246)"/>
<path d="M13.1914 5.34321C14.6393 3.35905 18.2111 3.52416 20.2618 3.83161C32.321 5.64212 42.1999 14.242 45.628 25.5919V25.609C48.5548 25.6801 51.5407 25.4723 54.5379 24.9428L54.7914 24.9002C55.5971 24.7407 56.3041 24.4447 56.9125 24.049C58.7463 22.859 59.7069 20.7724 59.7971 18.7569C59.9407 15.5572 58.2055 12.5511 51.9886 8.41766C47.0449 5.12686 41.321 3.11138 35.9492 1.73642C29.6731 0.130871 21.0759 -0.501092 14.6111 0.685988" fill="url(#paint1_linear_11139_21246)"/>
<defs>
<radialGradient id="paint0_radial_11139_21246" cx="0" cy="0" r="1" gradientUnits="userSpaceOnUse" gradientTransform="translate(15.3521 7.33596) rotate(-163.171) scale(41.7896 32.9486)">
<stop offset="0.0810973" stop-color="#002460"/>
<stop offset="0.666674" stop-color="#2E6BD2" stop-opacity="0.02"/>
<stop offset="0.88" stop-color="#2F6DD5" stop-opacity="0"/>
</radialGradient>
<linearGradient id="paint1_linear_11139_21246" x1="29.7717" y1="3.50139" x2="55.2654" y2="28.7253" gradientUnits="userSpaceOnUse">
<stop stop-color="#376CD4" stop-opacity="0"/>
<stop offset="0.22" stop-color="#2453AC" stop-opacity="0.34"/>
<stop offset="0.5" stop-color="#103982" stop-opacity="0.7"/>
<stop offset="0.73" stop-color="#042969" stop-opacity="0.92"/>
<stop offset="0.88" stop-color="#002460"/>
</linearGradient>
</defs>
</svg>